<svg id="图层_1" data-name="图层 1" xmlns="http://www.w3.org/2000/svg" viewBox="0 0 544 245"><defs><style>.cls-1{fill:#fff;}</style></defs><title>logo_white</title><path class="cls-1" d="M3.19,98.08V45.29q0-9.81,6.55-16t17-6.22q12.39,0,19.06,10.36a25.61,25.61,0,0,1,8.74-8A25.08,25.08,0,0,1,66,23q10.84,0,16.64,6.22t5.78,17.92V98.08h-24V50.44c0-2.35-.2-3.92-.62-4.69a2.58,2.58,0,0,0-2.51-1.15q-3.54,0-3.54,5.47v48h-24V50.44c0-2.32-.21-3.88-.65-4.66a2.61,2.61,0,0,0-2.53-1.18q-3.54,0-3.54,5.84V98.08Z"/><path class="cls-1" d="M162.59,24.85V72.33q0,12.56-8.23,20.07t-21.92,7.51q-13.64,0-20.86-7.3t-7.23-21V24.85h24V71.58q0,6.7,5.25,6.71,5.07,0,5.07-6.71V24.85Z"/><path class="cls-1" d="M204.15,44.54V98.08h-24V24.85h30.75q14,0,21.77,6.34a22.25,22.25,0,0,1,8.62,18q0,11.1-10.68,18.72l13.81,30.2H219.32l-11.63-23.6V55.65h1.89q7.56,0,7.56-5.9,0-5.2-8.74-5.21Z"/><path class="cls-1" d="M253.85,98.08V45.29q0-9.81,6.55-16t17-6.22q12.39,0,19.06,10.36a25.67,25.67,0,0,1,8.73-8A25.11,25.11,0,0,1,316.7,23q10.86,0,16.64,6.22t5.79,17.92V98.08h-24V50.44a11.59,11.59,0,0,0-.62-4.69A2.58,2.58,0,0,0,312,44.6q-3.54,0-3.54,5.47v48h-24V50.44a11.06,11.06,0,0,0-.65-4.66,2.63,2.63,0,0,0-2.54-1.18q-3.54,0-3.54,5.84V98.08Z"/><path class="cls-1" d="M413.26,24.85V72.33q0,12.56-8.23,20.07T383.1,99.91q-13.62,0-20.86-7.3t-7.23-21V24.85h24V71.58q0,6.7,5.26,6.71,5.07,0,5.07-6.71V24.85Z"/><path class="cls-1" d="M454.82,44.54V98.08h-24V24.85h30.75q14,0,21.77,6.34a22.28,22.28,0,0,1,8.62,18q0,11.1-10.69,18.72l13.81,30.2H470l-11.62-23.6V55.65h1.89q7.54,0,7.55-5.9,0-5.2-8.73-5.21Z"/><path class="cls-1" d="M544,24.53V45.4a14.55,14.55,0,0,0-4-.8,6.58,6.58,0,0,0-4.66,1.82,5.81,5.81,0,0,0-2,4.4q0,2.2,2.12,5.58l1.83,2.9q5,7.83,5,15.13a23.27,23.27,0,0,1-8.35,18.08,29.67,29.67,0,0,1-20.39,7.4A29.13,29.13,0,0,1,502.1,97.5V76.3a12.42,12.42,0,0,0,6.08,2,8.24,8.24,0,0,0,5.22-1.64,5,5,0,0,0,2.1-4.1q0-1.62-3.37-7a32.13,32.13,0,0,1-5.37-17.17q0-10.35,8.12-17.84A27.64,27.64,0,0,1,534.26,23,32.35,32.35,0,0,1,544,24.53Z"/><path class="cls-1" d="M43,145.22a41.73,41.73,0,0,1,29.36,11.33q12.24,11.31,12.25,27.09,0,16-12.34,27.25t-30,11.21q-17.52,0-29.92-11.26T0,183.64q0-16.09,12.48-27.26T43,145.22Zm-.71,21.57a17.6,17.6,0,0,0-12.57,4.94,16.23,16.23,0,0,0,0,23.82,17.6,17.6,0,0,0,12.54,4.93,17.57,17.57,0,0,0,12.6-4.91,16.36,16.36,0,0,0,0-23.87A17.61,17.61,0,0,0,42.31,166.79Z"/><path class="cls-1" d="M129.19,181.55v19.63h-8v19.1h-24V174.84q0-12.83,8.7-21.22t21.92-8.4q14.58,0,24.38,11.43l-19.65,13c-1.11-2.79-3.05-4.19-5.85-4.19q-5.55,0-5.54,7v9.07Z"/><path class="cls-1" d="M236.32,175.54v16.31H220.68a8.78,8.78,0,0,0-4.51.85,3.21,3.21,0,0,0-1.33,2.9c0,1.54.46,2.55,1.36,3s2.75.73,5.55.73h16.11v20.92H219q-13.28,0-20.3-5.77t-7-16.65V169.15q0-10.52,6.64-16.31T217,147.05h20.83v21H222.57q-6.19,0-6.19,3.65a3.11,3.11,0,0,0,1.47,3c1,.56,2.74.84,5.25.84Z"/><path class="cls-1" d="M283.84,183.53v19.31h-6.9v17.44H253V173.71q0-13.52,8.11-21t22.81-7.49q14.16,0,21,6.79t6.79,21v47.32h-24V174.41c0-2.86-.38-4.85-1.12-5.95s-2.09-1.67-4-1.67q-5.61,0-5.61,7.62v9.12Z"/><path class="cls-1" d="M353.14,166.74v53.54h-24V147.05h30.74q14.06,0,21.78,6.33a22.27,22.27,0,0,1,8.61,18q0,11.1-10.68,18.73l13.81,30.2H368.3l-11.62-23.61V177.84h1.88q7.56,0,7.56-5.9,0-5.2-8.73-5.2Z"/><path class="cls-1" d="M439.54,168.08v52.2h-24v-52.2H397.23v-21h60.61v21Z"/><path class="cls-1" d="M500.34,173.23v19.31h-6.67v27.74h-24V147.05h24v26.18Zm28-26.18v73.23h-24V147.05Z"/></svg>